PathFileType	4	(X/Y/Z)	motion_data.trc
DataRate	CameraRate	NumFrames	NumMarkers	Units	OrigDataRate	OrigDataStartFrame	OrigNumFrames
30.0	30.0	62	3	mm	30.0	1086	2170
Frame#	Time	r_acromion			r_humerus_epicondyle			r_radius_styloid		
		X1	Y1	Z1	X2	Y2	Z2	X3	Y3	Z3

1086	36.1667	478.6948	578.9610	-111.3829	380.2843	524.2485	-135.4542	436.5600	492.8935	-215.8365
1087	36.2000	478.4454	579.0800	-109.5386	381.9206	523.5425	-152.4778	454.7508	495.1180	-250.4321
1088	36.2333	478.2886	579.2462	-106.2898	382.3557	523.0848	-157.1239	468.7542	498.6037	-257.5087
1089	36.2667	478.8124	579.4587	-101.1860	381.6836	522.9590	-148.2845	480.7776	502.2438	-236.0809
1090	36.3000	480.9425	579.5935	-96.3286	382.9923	522.9045	-137.0417	493.9847	504.9372	-210.3470
1091	36.3333	484.9253	579.5502	-92.4760	389.1874	522.6617	-132.5539	508.2274	506.2203	-201.2024
1092	36.3667	489.6934	579.3410	-88.4463	399.2325	522.2784	-133.3638	520.3827	506.4730	-206.8140
1093	36.4000	493.8250	579.0468	-83.6210	408.9950	521.9909	-131.7164	528.5580	506.3521	-209.9535
1094	36.4333	497.1039	578.7718	-79.9290	416.0191	521.8098	-123.8703	534.5927	505.9180	-199.7172
1095	36.4667	500.4899	578.7098	-81.1849	421.7966	521.3417	-115.4049	541.8090	504.5509	-183.9406
1096	36.5000	504.4748	579.1829	-89.7623	428.7501	520.1772	-116.4634	551.0851	501.9674	-181.1355
1097	36.5333	508.2493	580.4309	-102.8796	436.6778	518.4738	-130.8785	560.0430	499.0308	-200.4315
1098	36.5667	510.8517	582.2593	-112.8121	443.2426	516.9608	-149.7689	565.7257	497.0880	-229.4034
1099	36.6000	512.4774	584.0052	-112.5075	446.9418	516.2150	-157.8332	567.2444	496.6220	-244.0438
1100	36.6333	514.0501	585.0037	-102.0511	448.5097	516.0295	-148.4770	566.0500	496.9810	-233.8109
1101	36.6667	515.8329	585.0994	-89.3962	449.5712	515.6721	-132.3178	564.4340	497.3324	-214.7944
1102	36.7000	517.1370	584.6718	-83.2706	450.7110	514.7397	-127.0283	563.8694	497.4046	-211.8769
1103	36.7333	517.4324	584.2342	-84.6410	451.4003	513.5572	-137.6413	564.3638	497.2812	-228.3193
1104	36.7667	517.1059	584.0626	-86.9257	451.4275	512.6807	-151.3622	565.1507	496.9814	-242.2055
1105	36.8000	516.6743	584.1272	-85.4310	451.3445	512.2508	-153.9683	565.8201	496.5919	-235.2517
1106	36.8333	515.5533	584.2435	-83.7039	451.1440	512.0403	-145.9853	566.4590	496.5944	-214.4252
1107	36.8667	512.1759	584.2382	-88.4513	449.2953	511.9283	-138.6546	566.6671	497.5810	-198.9827
1108	36.9000	505.5161	584.0071	-100.1750	443.8943	511.9604	-138.1048	565.0494	499.4870	-194.9398
1109	36.9333	496.3725	583.4972	-111.3734	434.7002	511.9885	-139.2544	560.3140	501.4250	-191.9870
1110	36.9667	487.0249	582.7161	-114.3162	423.4917	511.6298	-135.4191	552.6158	502.5568	-183.0882
1111	37.0000	479.5265	581.7959	-110.0581	412.1988	510.7423	-129.9274	543.0410	502.9113	-177.8086
1112	37.0333	474.2479	581.0117	-108.7570	401.1055	509.7497	-134.3921	532.0346	502.9692	-191.2822
1113	37.0667	469.9762	580.6422	-119.3445	389.4218	509.3072	-154.1327	519.5327	502.5586	-222.4774
1114	37.1000	465.2270	580.7216	-138.7140	377.4066	509.6407	-177.9304	506.4164	500.7075	-249.5974
1115	37.1333	459.4523	580.9192	-153.3518	367.1299	510.2968	-186.8588	493.9248	496.8966	-251.0999
1116	37.1667	453.3289	580.7295	-152.7070	360.7597	510.6119	-173.7704	481.0137	492.1221	-228.5888
1117	37.2000	448.0811	579.8227	-139.2646	358.2711	510.4086	-149.7493	463.9601	488.1623	-203.0598
1118	37.2333	444.2797	578.2434	-124.6159	357.0663	510.1286	-130.4839	439.9221	485.7987	-190.2165
1119	37.2667	441.0718	576.3685	-117.7506	354.0867	510.2611	-121.8790	410.4744	484.2936	-188.4483
1120	37.3000	436.6980	574.7160	-118.9636	348.4525	510.7622	-121.2306	381.0038	482.6544	-191.3348
1121	37.3333	430.0231	573.6601	-123.2281	341.8415	511.0919	-125.3924	356.8727	480.7101	-199.0353
1122	37.3667	421.6675	573.1785	-126.0624	336.2472	510.7342	-131.9626	340.2190	478.7493	-211.4179
1123	37.4000	413.5142	572.8731	-125.7676	331.9674	509.6393	-136.9123	329.6382	476.9295	-221.1172
1124	37.4333	407.0444	572.3011	-122.2836	328.2126	508.2307	-136.9384	322.3697	475.5234	-221.8902
1125	37.4667	402.3666	571.3200	-115.5678	324.9895	507.0423	-133.0457	317.0924	475.0944	-218.1041
1126	37.5000	398.8335	570.1586	-106.0988	323.3624	506.3450	-129.9558	314.7314	475.8407	-221.1233
1127	37.5333	396.0422	569.2019	-97.1053	323.9230	506.0873	-132.5811	316.0969	477.1207	-238.2441
1128	37.5667	393.9563	568.6890	-94.1332	325.8424	506.0939	-141.4707	319.1399	478.0616	-264.0982
1129	37.6000	392.5446	568.5482	-100.8154	327.7150	506.2143	-151.3767	320.4345	478.4293	-282.8357
1130	37.6333	391.7287	568.4994	-115.8629	328.9091	506.2573	-157.9479	320.5419	478.6445	-284.5234
1131	37.6667	391.4652	568.3247	-133.5422	329.7990	505.8551	-164.4583	325.8810	479.1616	-278.0874
1132	37.7000	391.5855	568.0283	-146.2423	330.8287	504.5741	-176.5555	341.9256	480.0929	-280.5527
1133	37.7333	391.7318	567.7482	-150.2491	331.7180	502.4047	-193.4364	364.9859	481.2507	-297.4413
1134	37.7667	391.7879	567.5922	-151.2006	332.0861	500.0822	-209.8529	385.4356	482.1248	-320.5379
1135	37.8000	392.3751	567.6136	-158.9862	333.2099	498.4538	-221.9042	400.9344	481.8082	-336.3958
1136	37.8333	394.6061	567.8737	-174.2101	338.6863	497.3411	-225.2578	421.3623	479.5083	-330.0174
1137	37.8667	399.1506	568.4115	-184.0857	352.0920	495.5283	-213.5021	456.0919	475.4952	-291.6826
1138	37.9000	405.6332	569.1334	-175.3339	373.2551	492.2803	-185.1382	499.9372	471.1988	-229.8705
1139	37.9333	412.9857	569.8147	-149.0943	397.3600	488.5269	-149.7739	537.2596	467.9982	-170.3146
1140	37.9667	420.2077	570.2882	-120.2756	418.4660	486.0803	-122.2504	558.3189	466.1474	-134.9456
1141	38.0000	426.7843	570.6145	-102.8521	433.8848	485.8565	-110.3133	566.7974	465.1249	-124.9361
1142	38.0333	432.6898	571.0007	-98.5614	444.8557	487.2165	-110.2165	572.0046	464.6293	-126.9469
1143	38.0667	438.1159	571.5476	-100.2066	453.3849	488.8134	-113.7233	578.2431	464.7138	-130.4974
1144	38.1000	442.9333	572.1345	-101.9430	459.4903	489.5526	-116.2000	583.3759	465.0925	-134.0211
1145	38.1333	446.3742	572.5634	-103.5843	462.0489	488.8418	-117.7913	585.0824	464.9235	-138.0446
1146	38.1667	447.7264	572.7712	-108.0041	461.2576	486.7344	-121.0365	584.6039	463.5489	-141.6740
1147	38.2000	447.6214	572.8947	-118.3617	458.4499	484.3523	-129.6574	582.8276	461.2048	-147.8680
